<svg id="Layer_1" data-name="Layer 1" xmlns="http://www.w3.org/2000/svg" viewBox="0 0 92 87"><defs><style>.cls-1{fill:#fff;}</style></defs><title>social1</title><path class="cls-1" d="M46,7.4A36.1,36.1,0,1,0,82.1,43.5,36.1,36.1,0,0,0,46,7.4Zm0,52.9a16.6,16.6,0,1,1,16.6-16.6A16.61,16.61,0,0,1,46,60.3Z"/><path class="cls-1" d="M46,29.33A14.38,14.38,0,0,0,40.76,57.1a13.78,13.78,0,0,1,0-4.12c.26-1.12,1.69-7.15,1.69-7.15a5.19,5.19,0,0,1-.43-2.13c0-2,1.16-3.49,2.6-3.49a1.81,1.81,0,0,1,1.82,2c0,1.23-.79,3.08-1.19,4.79a2.09,2.09,0,0,0,2.13,2.6c2.56,0,4.52-2.69,4.52-6.58a5.68,5.68,0,0,0-6-5.85,6.22,6.22,0,0,0-6.49,6.24,5.59,5.59,0,0,0,1.07,3.28.43.43,0,0,1,.1.41l-.4,1.63c-.06.26-.21.32-.48.19-1.8-.84-2.92-3.46-2.92-5.57,0-4.54,3.3-8.7,9.5-8.7,5,0,8.86,3.55,8.86,8.3,0,5-3.12,8.94-7.46,8.94a3.85,3.85,0,0,1-3.3-1.65l-.9,3.42a16.06,16.06,0,0,1-1.79,3.77A14.38,14.38,0,1,0,46,29.33Z"/></svg>