<svg id="Layer_1" data-name="Layer 1" xmlns="http://www.w3.org/2000/svg" viewBox="0 0 92 87"><defs><style>.cls-1{fill:#fff;}</style></defs><title>social4</title><path class="cls-1" d="M46,7.4A36.1,36.1,0,1,0,82.1,43.5,36.1,36.1,0,0,0,46,7.4ZM59.35,54.7A1.36,1.36,0,0,1,58,56.06H51.7V46.49h3.21l.48-3.73H51.7V40.38c0-1.08.3-1.82,1.85-1.82h2V35.23a26.41,26.41,0,0,0-2.88-.15c-2.85,0-4.8,1.74-4.8,4.93v2.75H44.63v3.73h3.22v9.57H36a1.36,1.36,0,0,1-1.36-1.36v-22A1.36,1.36,0,0,1,36,31.35H58a1.36,1.36,0,0,1,1.36,1.36Z"/></svg>