<svg id="Layer_1" data-name="Layer 1" xmlns="http://www.w3.org/2000/svg" viewBox="0 0 92 87"><defs><style>.cls-1{fill:#fff;}</style></defs><title>social2</title><path class="cls-1" d="M57,35.38a4.67,4.67,0,0,0-2.68-2.68,7.81,7.81,0,0,0-2.62-.49c-1.49-.07-1.93-.08-5.7-.08s-4.22,0-5.7.08a7.81,7.81,0,0,0-2.62.49A4.67,4.67,0,0,0,35,35.38,7.81,7.81,0,0,0,34.51,38c-.07,1.49-.08,1.93-.08,5.7s0,4.22.08,5.7A7.81,7.81,0,0,0,35,52a4.67,4.67,0,0,0,2.68,2.68,7.81,7.81,0,0,0,2.62.49c1.49.07,1.93.08,5.7.08s4.22,0,5.7-.08a7.81,7.81,0,0,0,2.62-.49A4.67,4.67,0,0,0,57,52a7.81,7.81,0,0,0,.49-2.62c.07-1.49.08-1.93.08-5.7s0-4.22-.08-5.7A7.81,7.81,0,0,0,57,35.38ZM46,51a7.25,7.25,0,1,1,7.25-7.25A7.25,7.25,0,0,1,46,51Zm7.54-13.09a1.69,1.69,0,1,1,1.69-1.69A1.69,1.69,0,0,1,53.54,37.87Z"/><circle class="cls-1" cx="46" cy="43.71" r="4.71"/><path class="cls-1" d="M46,7.4A36.1,36.1,0,1,0,82.1,43.5,36.1,36.1,0,0,0,46,7.4ZM60,49.53A10.37,10.37,0,0,1,59.38,53a7.22,7.22,0,0,1-4.13,4.13,10.36,10.36,0,0,1-3.43.66c-1.51.07-2,.08-5.82.08s-4.31,0-5.82-.08a10.36,10.36,0,0,1-3.43-.66A7.22,7.22,0,0,1,32.62,53,10.37,10.37,0,0,1,32,49.53c-.07-1.51-.08-2-.08-5.82s0-4.31.08-5.82a10.37,10.37,0,0,1,.66-3.43,7.22,7.22,0,0,1,4.13-4.13,10.37,10.37,0,0,1,3.43-.66c1.51-.07,2-.08,5.82-.08s4.31,0,5.82.08a10.37,10.37,0,0,1,3.43.66,7.22,7.22,0,0,1,4.13,4.13A10.37,10.37,0,0,1,60,37.89c.07,1.51.08,2,.08,5.82S60.1,48,60,49.53Z"/></svg>