<svg id="Layer_1" data-name="Layer 1" xmlns="http://www.w3.org/2000/svg" viewBox="0 0 92 87"><defs><style>.cls-1{fill:#fff;}</style></defs><title>social3</title><path class="cls-1" d="M46,7.4A36.1,36.1,0,1,0,82.1,43.5,36.1,36.1,0,0,0,46,7.4ZM58.79,37.92c0,.25,0,.5,0,.75,0,7.7-5.86,16.57-16.57,16.57a16.49,16.49,0,0,1-8.93-2.62,11.85,11.85,0,0,0,1.39.08,11.69,11.69,0,0,0,7.23-2.49,5.83,5.83,0,0,1-5.44-4,5.81,5.81,0,0,0,2.63-.1,5.83,5.83,0,0,1-4.67-5.71s0,0,0-.07a5.78,5.78,0,0,0,2.64.73,5.83,5.83,0,0,1-1.8-7.78,16.54,16.54,0,0,0,12,6.09A5.83,5.83,0,0,1,57.21,34a11.67,11.67,0,0,0,3.7-1.41,5.85,5.85,0,0,1-2.56,3.22,11.63,11.63,0,0,0,3.34-.92A11.85,11.85,0,0,1,58.79,37.92Z"/></svg>