<?xml version="1.0" encoding="utf-8"?>
<!-- Generator: Adobe Illustrator 21.1.0, SVG Export Plug-In . SVG Version: 6.00 Build 0)  -->
<svg version="1.1" id="Layer_1" xmlns="http://www.w3.org/2000/svg" xmlns:xlink="http://www.w3.org/1999/xlink" x="0px" y="0px"
	 viewBox="0 0 718.6 510.6" style="enable-background:new 0 0 718.6 510.6;" xml:space="preserve">
<style type="text/css">
	#i1, #i2, #i3, #i4 {fill:#FFFFFF;}
</style>
<path id="i1" d="M26.7,43.1l177.3-13.4c0,0-70.2,20.1-73.6,65.2c-3.3,45.2-22,198.2-3.3,272.6c11.7,46.8,100.4,26.8,100.4,26.8
	s138.8-26.8,279.3,23.4C383,432.2,299.3,396,36.7,503.1C36.7,503.1,147.1,166.9,26.7,43.1z"/>
<path id="i2" d="M229.5,86.6c0,0-75.6-11.6-80.7,141.3c-5,148.1,73.6,138,73.6,138S311,381.5,311,238.8
	C311,73.1,229.5,86.6,229.5,86.6z M230.7,329.1c0,0-38.5,10-38.5-101.5c0-102.6,38.5-100.9,38.5-100.9s36-7.2,36,97
	C266.7,335.8,230.7,329.1,230.7,329.1z"/>
<path id="i3" d="M468.2,38.1c0,0,55.2,38.3,55.2,86.9s1.1,210.7-27.6,244.8c0,0,52.7,14.5,66.1,26.2c0,0-15.6-65.9,0-107
	c0,0,123.8,88.6,53.5,150.5c0,0,87-5.6,60.2-69.7c0,0-46.2-69.1-92.2-115.9c0,0,60.4-147.7,129-167.5l-92,10.3
	c0,0,19.2-2.1-55.2,108.7v-119L468.2,38.1z"/>
<path id="i4" d="M410.1,86.6c0,0-75.6-11.6-80.7,141.3c-5,148.1,73.6,138,73.6,138s88.6,15.6,88.6-127.1
	C491.6,73.1,410.1,86.6,410.1,86.6z M411.3,329.1c0,0-38.5,10-38.5-101.5c0-102.6,38.5-100.9,38.5-100.9s36-7.2,36,97
	C447.3,335.8,411.3,329.1,411.3,329.1z"/>
</svg>
